:SAMPLES-PER-SECOND 30
:FULLY-SPECIFIED
:DEGREES
364
root  40.7912 36.0747 -11.0815 -140.05 86.3354 -178.109
RightUpLeg  -75.5547 -15.6518 20.1776
RightLeg  40.5034 1.04209 0.663726
RightFoot  -1.68593 0.888908 -10.6151
RightToes  0.000482159 0.542163 -0.142577
Spine  69.1623 -5.63758 9.69638
Spine1  -0.914003 2.49871 -8.34494
HEad  -41.2444 -9.29705 5.36867
LeftShoulder1  8.18166 -29.7291 -17.7426
LeftArm  -72.1761 -63.0896 27.0566
LeftForeArm  4.98482 -4.43465 -0.0239108
LeftHand  -0.25398 0.0180481 5.50724
RightShoulder  4.34317 18.9867 12.2057
RightArm  -63.0097 52.1327 -29.6212
RightForeArm  -14.308 -2.76801 2.95264
RightHand  -0.568983 5.68423 -6.36535
LeftUpLeg  -78.4551 20.9048 -31.3003
LeftLeg  35.3766 -2.21981 -1.32689
LeftFoot  -1.14672 -1.24283 13.9219
LeftToes  1.06248e-005 4.65854e-005 -8.185e-006
365
root  41.27 35.9952 -11.1983 -137.138 86.3854 -177.103
RightUpLeg  -77.2374 -15.1512 20.4771
RightLeg  41.4371 0.613928 0.285048
RightFoot  -2.45654 0.77397 -10.1378
RightToes  0.000482159 0.542163 -0.142577
Spine  70.5861 -5.33457 9.1349
Spine1  -2.31049 2.32369 -8.21781
HEad  -41.391 -8.87013 5.48471
LeftShoulder1  7.538 -29.9702 -15.4747
LeftArm  -77.2609 -62.7122 31.3604
LeftForeArm  2.93641 -5.17363 0.67842
LeftHand  -0.25398 0.0180481 5.50724
RightShoulder  4.0146 19.4789 10.1536
RightArm  -64.2156 51.4495 -31.2181
RightForeArm  -17.0459 -2.94788 2.85745
RightHand  -0.500176 6.85849 -5.16621
LeftUpLeg  -80.3152 19.9332 -31.4154
LeftLeg  36.9099 -1.39995 -0.7591
LeftFoot  -1.88435 -1.07676 13.0959
LeftToes  1.06248e-005 4.65854e-005 -8.185e-006
366
root  41.7087 35.9386 -11.3171 -131.128 86.5673 -172.71
RightUpLeg  -78.677 -14.7345 20.9488
RightLeg  42.2794 0.571516 0.254804
RightFoot  -2.72313 0.700333 -9.51164
RightToes  0.000482159 0.542163 -0.142577
Spine  71.7608 -4.77244 8.60235
Spine1  -3.07217 2.54043 -7.97648
HEad  -41.4596 -8.84753 5.27611
LeftShoulder1  7.06055 -30.1221 -13.8197
LeftArm  -81.5908 -62.4244 35.4679
LeftForeArm  1.04981 -5.77542 1.06499
LeftHand  -0.25398 0.0180481 5.50724
RightShoulder  3.54726 19.0283 8.23139
RightArm  -66.4935 51.4991 -31.9246
RightForeArm  -21.6345 -3.1852 2.42371
RightHand  -0.518751 7.68669 -5.05936
LeftUpLeg  -81.9732 19.4502 -31.9574
LeftLeg  37.9481 -0.828315 -0.318293
LeftFoot  -2.53139 -1.00676 13.2147
LeftToes  1.06248e-005 4.65854e-005 -8.185e-006
367
root  42.0808 35.8927 -11.4513 -121.758 86.7102 -164.663
RightUpLeg  -80.0844 -14.2742 21.5258
RightLeg  43.2701 0.438722 0.132274
RightFoot  -2.34434 0.671488 -8.7143
RightToes  0.000482159 0.542163 -0.142577
Spine  72.5342 -4.34188 8.2112
Spine1  -3.04515 2.83499 -7.96549
HEad  -41.5314 -8.85869 4.77476
LeftShoulder1  6.60499 -29.8136 -12.5461
LeftArm  -85.3693 -62.2209 39.3364
LeftForeArm  0.177916 -6.50021 1.21559
LeftHand  -0.25398 0.0180481 5.50724
RightShoulder  3.00084 17.7171 6.46137
RightArm  -71.3003 52.2855 -31.4257
RightForeArm  -25.2419 -3.20563 0.920883
RightHand  -0.466858 8.14412 -4.47423
LeftUpLeg  -83.3567 19.264 -32.5339
LeftLeg  38.7932 -0.443074 -0.00213229
LeftFoot  -3.3334 -0.961825 13.9495
LeftToes  1.06248e-005 4.65854e-005 -8.185e-006
368
root  42.3849 35.8597 -11.5806 -115.205 86.5649 -159.016
RightUpLeg  -81.1008 -13.9493 21.8454
RightLeg  44.1781 0.0212192 -0.293936
RightFoot  -2.02841 0.637184 -7.96799
RightToes  0.000482159 0.542163 -0.142577
Spine  73.1414 -4.35221 7.88943
Spine1  -2.67826 2.70308 -8.13838
HEad  -41.7684 -8.32298 4.33449
LeftShoulder1  6.0846 -28.7419 -11.5265
LeftArm  -88.7933 -62.0716 42.291
LeftForeArm  0.186845 -7.65006 1.4022
LeftHand  -0.25398 0.0180481 5.50724
RightShoulder  2.6674 16.5565 5.5251
RightArm  -76.0781 52.8218 -30.7247
RightForeArm  -25.4119 -2.16929 -0.636129
RightHand  -0.11143 8.20366 -1.4033
LeftUpLeg  -84.353 19.0561 -32.5818
LeftLeg  39.8104 -0.193752 0.211727
LeftFoot  -3.89222 -0.878369 13.7809
LeftToes  1.06248e-005 4.65854e-005 -8.185e-006
